<svg id="Layer_2" data-name="Layer 2" xmlns="http://www.w3.org/2000/svg" viewBox="0 0 355.04 355.04"><defs><style>.cls-1,.cls-5,.cls-7{fill:#fff;}.cls-1,.cls-6,.cls-7{stroke:#1d1d1b;}.cls-1,.cls-2,.cls-6,.cls-7{stroke-miterlimit:10;}.cls-2,.cls-4{fill:#ee744d;}.cls-2{stroke:#fff;}.cls-3{fill:#1d1d1b;}.cls-6{fill:none;}.cls-7{font-size:59.12px;font-family:MyriadPro-Regular, Myriad Pro;}</style></defs><path class="cls-1" d="M292.39,497.7" transform="translate(-123.87 -249.52)"/><circle class="cls-2" cx="177.52" cy="177.52" r="177.02"/><path class="cls-3" d="M291.76,367.49V497c0,3.22,5,3.22,5,0V367.49c0-3.22-5-3.22-5,0Z" transform="translate(-123.87 -249.52)"/><path class="cls-3" d="M293.9,494.44A31.55,31.55,0,0,1,282.08,493a15,15,0,0,1-6.16-3.64,39.45,39.45,0,0,1-5.6-6.43,17.22,17.22,0,0,1-3.15-6.47,2.53,2.53,0,0,0-3.07-1.75,2.55,2.55,0,0,0-1.75,3.08,21.46,21.46,0,0,0,3.84,7.94,45.09,45.09,0,0,0,6.42,7.37,20.75,20.75,0,0,0,7.7,4.58,35.6,35.6,0,0,0,13.59,1.73,2.55,2.55,0,0,0,2.5-2.5,2.52,2.52,0,0,0-2.5-2.5Z" transform="translate(-123.87 -249.52)"/><path class="cls-3" d="M274.27,465.41a16.3,16.3,0,0,1-7.31,8.17,13.54,13.54,0,0,1-9.54,1.36c-7.36-1.82-11.27-10-12.15-17.15A26.49,26.49,0,0,1,247,444.2c.66-1.53-.06-4-2.16-3.76a33.68,33.68,0,0,1-6.27.16,11.14,11.14,0,0,1-1.95-.32l-.88-.25-.48-.16c-.73-.26.39.2-.3-.12a12.43,12.43,0,0,1-1.58-.91c-.34-.23.16.17-.28-.21-.24-.22-.49-.44-.72-.67s-.41-.43-.6-.65-.61-.74-.31-.36c-.41-.52-.77-1.06-1.13-1.62A28.24,28.24,0,0,1,226,418.28c.17-3.3,1-6.84,3.2-9.11s-1.3-5.85-3.54-3.53c-5.51,5.71-5.36,15.07-3.79,22.32a29,29,0,0,0,3.72,9.18,18.15,18.15,0,0,0,6.05,6.5c4,2.28,8.81,2.26,13.22,1.8l-2.16-3.76a32.27,32.27,0,0,0,1.89,29.12,19.83,19.83,0,0,0,10.55,8.68,18.51,18.51,0,0,0,13.17-1,21.45,21.45,0,0,0,10.84-11.76,2.53,2.53,0,0,0-1.75-3.08,2.58,2.58,0,0,0-3.08,1.75Z" transform="translate(-123.87 -249.52)"/><path class="cls-3" d="M238.34,411.16a24.17,24.17,0,0,1-7.07-6.85,13.6,13.6,0,0,1-1.42-10.88,17.4,17.4,0,0,1,5.43-8.79,12.8,12.8,0,0,1,8.07-3,22.31,22.31,0,0,1,10.57,1.67,2.57,2.57,0,0,0,3.42-.9,2.52,2.52,0,0,0-.9-3.42,26.62,26.62,0,0,0-12-2.39,18.91,18.91,0,0,0-11.21,3.37c-7.62,5.64-11.31,16.49-7.16,25.29,2.05,4.34,5.86,7.58,9.75,10.25a2.52,2.52,0,0,0,3.42-.89,2.56,2.56,0,0,0-.9-3.42Z" transform="translate(-123.87 -249.52)"/><path class="cls-3" d="M264.88,373a6.68,6.68,0,0,1-2.17,6.81,3.44,3.44,0,0,1-2.68.91,5.68,5.68,0,0,1-2.8-1.27c-5.6-4.57-4.8-13.4-3.22-19.62,1.39-5.42,4.13-13,10.2-14.6,5.53-1.49,12.06,1.09,16.61,4.24a27.33,27.33,0,0,1,10.92,16.6c.7,3.14,5.52,1.81,4.82-1.33a32.36,32.36,0,0,0-12.24-18.88,30.51,30.51,0,0,0-9.39-4.77c-3.8-1.16-8.17-1.73-12.05-.69-8.12,2.19-12.07,11.33-13.85,18.76-2,8.29-2,18.93,5.57,24.55a9,9,0,0,0,11.52-.27,11.67,11.67,0,0,0,3.58-11.77c-.87-3.1-5.69-1.78-4.82,1.33Z" transform="translate(-123.87 -249.52)"/><path class="cls-3" d="M228,408.81c3.21,0,3.22-5,0-5s-3.23,5,0,5Z" transform="translate(-123.87 -249.52)"/><path class="cls-3" d="M247.69,399.45c6.05-.23,11.53,3.53,14.83,8.51a27.94,27.94,0,0,1,3.84,9.76c.82,3.76,1.5,7.71,3.75,10.93a2.56,2.56,0,0,0,3.42.89,2.52,2.52,0,0,0,.89-3.42c-2.27-3.25-2.65-7.37-3.55-11.13A29.25,29.25,0,0,0,266,404.25c-4.31-5.77-10.89-10.08-18.31-9.8-3.21.12-3.23,5.12,0,5Z" transform="translate(-123.87 -249.52)"/><path class="cls-3" d="M262.53,401c-4.41-1.32-8.39,1.8-10.64,5.32s-3.48,8.46-1.71,12.48a8,8,0,0,0,5.55,4.41,2.5,2.5,0,1,0,1.33-4.82l-.64-.17c-.27-.09-.64-.39-.13,0-.07-.06-1-.6-1-.59s.45.44.19.13c-.05-.05-.11-.09-.15-.14a2.77,2.77,0,0,0-.37-.39c-.24-.15.26.44.14.19,0-.06-.08-.11-.11-.17l-.3-.52c0-.07-.07-.16-.12-.24-.16-.25.15.52.1.23a4.11,4.11,0,0,0-.15-.46c-.05-.17-.09-.35-.13-.53s0-.19-.05-.28c-.09-.43,0,.48,0,.17s-.05-.72,0-1.09q0-.3,0-.6a1.64,1.64,0,0,1,0-.22c0-.42,0-.07,0,.13a7.29,7.29,0,0,1,.61-2.45l.22-.6c.15-.42-.23.49,0-.07.19-.39.38-.78.59-1.15a10.76,10.76,0,0,1,.63-1l.36-.52c-.33.48,0,0,.15-.16s.51-.56.78-.82.29-.26.44-.39c.45-.41-.25.13.06-.06s.7-.44,1.07-.64c.56-.29-.39.11.09,0l.56-.17c.67-.15,0,.08,0,0s.51,0,.58,0h.26c.51,0-.21,0-.21,0l.66.16a2.5,2.5,0,1,0,1.32-4.82Z" transform="translate(-123.87 -249.52)"/><path class="cls-3" d="M253,438.2a24.4,24.4,0,0,0,5.19,6.16,16.29,16.29,0,0,0,3.56,2.24,15.47,15.47,0,0,0,2.18.82,9,9,0,0,0,.89.24c-.4-.07.14.17-.12-.08a10.47,10.47,0,0,1,1.7,2.14,11.85,11.85,0,0,0,2.24,2.65c2.73,2.2,6.37,1.72,9.58,1.12a2.54,2.54,0,0,0,1.75-3.08,2.58,2.58,0,0,0-3.08-1.75,12.27,12.27,0,0,1-3.72.34,3.61,3.61,0,0,1-1.31-.42c.34.2-.17-.17-.24-.23a4.81,4.81,0,0,1-.42-.48s-.42-.58-.63-.9-.5-.75-.77-1.11a9,9,0,0,0-2.44-2.48,21.69,21.69,0,0,0-3.22-1.16,11.79,11.79,0,0,1-2.41-1.39,18.79,18.79,0,0,1-4.41-5.15c-1.71-2.73-6-.22-4.32,2.52Z" transform="translate(-123.87 -249.52)"/><path class="cls-3" d="M263.28,447.43a11.07,11.07,0,0,1-.29,14.7c-2.29,2.26,1.24,5.8,3.54,3.54,5.79-5.71,5.8-15.89.29-21.77a2.5,2.5,0,1,0-3.54,3.53Z" transform="translate(-123.87 -249.52)"/><path class="cls-3" d="M292.07,380a52.25,52.25,0,0,1-9.8,12.25c-1.41,1.26-3.51,2.78-5.52,2.15a3.6,3.6,0,0,1-2.26-3.82,2.58,2.58,0,0,0-1.75-3.07,2.5,2.5,0,0,0-3.07,1.74,9,9,0,0,0,3.43,8.86c2.93,2.1,6.81,1.63,9.77-.12a30.34,30.34,0,0,0,7.36-6.85,66.2,66.2,0,0,0,6.16-8.62c1.66-2.77-2.66-5.28-4.32-2.52Z" transform="translate(-123.87 -249.52)"/><path class="cls-3" d="M291.76,435.23c0,.43,0,.85-.07,1.27,0,.2,0,.4-.06.59s0,.23,0-.16c0,.11,0,.22-.05.34a22.09,22.09,0,0,1-.51,2.28c-.11.38-.22.75-.35,1.11-.07.21-.15.41-.23.62s-.1.42-.18.46q.23-.53.06-.15l-.14.3-.21.43c-.19.39-.39.76-.61,1.14a2.5,2.5,0,0,0,4.32,2.52,22.66,22.66,0,0,0,3-10.75,2.51,2.51,0,0,0-2.5-2.5,2.55,2.55,0,0,0-2.5,2.5Z" transform="translate(-123.87 -249.52)"/><path class="cls-3" d="M296.27,495.17c-.08-7.93-4.61-16.73-12.64-19.1a2.5,2.5,0,1,0-1.33,4.82l.6.19.3.11c-.3-.12.3.14.29.14.17.07.33.16.49.24.35.2.69.4,1,.63.16.1.31.21.46.32s-.24-.21.11.09a19.37,19.37,0,0,1,1.72,1.67c.13.15.25.3.38.44.29.34,0-.06.12.15s.51.71.75,1.08a17.08,17.08,0,0,1,2.73,9.22,2.5,2.5,0,1,0,5,0Z" transform="translate(-123.87 -249.52)"/><path class="cls-3" d="M247.38,394.46l-.2,0,.66-.09a6.27,6.27,0,0,1-1.5,0l.67.09a6.47,6.47,0,0,1-1.67-.46l.6.26a8.61,8.61,0,0,1-1.63-1l.51.39a8.35,8.35,0,0,1-1.48-1.49l.39.51a9.14,9.14,0,0,1-1.16-2l.25.6,0-.11a2.78,2.78,0,0,0-1.15-1.5,2.51,2.51,0,0,0-3.42.9,2.43,2.43,0,0,0-.25,1.93,12.8,12.8,0,0,0,2,3.35,10.06,10.06,0,0,0,2.4,2.11,8.61,8.61,0,0,0,2.77,1.19,9.06,9.06,0,0,0,3.63.08,2.49,2.49,0,0,0,1.49-1.15,2.55,2.55,0,0,0,.25-1.93,2.49,2.49,0,0,0-1.15-1.49,2.82,2.82,0,0,0-1.92-.25Z" transform="translate(-123.87 -249.52)"/><path class="cls-3" d="M235.11,426c2.54,3.28,6.33,4.9,10,6.45.16.07.14.06-.07,0l.32.13.63.27c.42.19.84.37,1.25.57a22.1,22.1,0,0,1,2.39,1.3c.19.12.38.24.56.37l.38.28.36.3.5.47.48.5c.05.07.46.55.33.38s.24.36.29.44c.16.24.31.49.45.74a2.5,2.5,0,0,0,4.32-2.52c-2.11-3.7-5.62-5.8-9.42-7.42l-1.66-.7.07,0-.32-.13-.74-.32c-.84-.38-1.68-.77-2.49-1.21-.4-.22-.79-.45-1.18-.7l-.57-.38c-.09-.06-.56-.43-.23-.16a13.16,13.16,0,0,1-2.15-2.2,2.52,2.52,0,0,0-3.54,0,2.57,2.57,0,0,0,0,3.53Z" transform="translate(-123.87 -249.52)"/><path class="cls-3" d="M294.17,368.47c3.22,0,3.22-5,0-5s-3.22,5,0,5Z" transform="translate(-123.87 -249.52)"/><path class="cls-3" d="M294.26,368.82c3.22,0,3.23-5,0-5s-3.22,5,0,5Z" transform="translate(-123.87 -249.52)"/><path class="cls-3" d="M291.76,366.56v.58a2.83,2.83,0,0,0,.74,1.77,2,2,0,0,0,.8.52,2,2,0,0,0,1,.21l.67-.09a2.5,2.5,0,0,0,1.1-.64l.39-.51a2.43,2.43,0,0,0,.34-1.26v-.58a1.8,1.8,0,0,0-.21-1,2.3,2.3,0,0,0-1.32-1.32,1.8,1.8,0,0,0-1-.21l-.66.09a2.41,2.41,0,0,0-1.1.64l-.39.5a2.55,2.55,0,0,0-.35,1.27Z" transform="translate(-123.87 -249.52)"/><path class="cls-3" d="M294.17,368.71c3.22,0,3.22-5,0-5s-3.22,5,0,5Z" transform="translate(-123.87 -249.52)"/><path class="cls-3" d="M294.17,368.35c3.22,0,3.22-5,0-5s-3.22,5,0,5Z" transform="translate(-123.87 -249.52)"/><path class="cls-3" d="M294.26,368.47c3.22,0,3.23-5,0-5s-3.22,5,0,5Z" transform="translate(-123.87 -249.52)"/><path class="cls-3" d="M307.29,367.15V496.7c0,3.21,5,3.22,5,0V367.15c0-3.22-5-3.23-5,0Z" transform="translate(-123.87 -249.52)"/><path class="cls-3" d="M310.15,499.1a35.13,35.13,0,0,0,13.38-1.71,20.69,20.69,0,0,0,7.76-4.66,45.33,45.33,0,0,0,6.4-7.49,21.23,21.23,0,0,0,3.68-7.77,2.56,2.56,0,0,0-1.74-3.07,2.52,2.52,0,0,0-3.08,1.75,17.4,17.4,0,0,1-3.18,6.57A38.86,38.86,0,0,1,328,489a14.44,14.44,0,0,1-5.77,3.57,31,31,0,0,1-12.05,1.54,2.52,2.52,0,0,0-2.5,2.5,2.55,2.55,0,0,0,2.5,2.5Z" transform="translate(-123.87 -249.52)"/><path class="cls-3" d="M324.76,466.4a21.73,21.73,0,0,0,9.23,11,18.65,18.65,0,0,0,13.07,2.14c9.86-2.1,14.92-12.44,16.08-21.59a31.8,31.8,0,0,0-2.29-16.61l-2.16,3.76c4,.43,8.29.45,12.06-1.27a15.64,15.64,0,0,0,6.38-6,33.32,33.32,0,0,0,5.15-20.39c-.3-4.39-1.48-8.86-4.59-12.13-2.22-2.33-5.76,1.21-3.53,3.54a13.35,13.35,0,0,1,3,7.79,32,32,0,0,1-.67,10,22.53,22.53,0,0,1-3,7.53c-.33.54-.67,1.08-1,1.6a7.76,7.76,0,0,1-.91,1.2,14,14,0,0,1-1.14,1.17l-.33.28c-.3.25.3-.21,0,0s-.55.38-.84.55a9.73,9.73,0,0,1-4,1.24,30.6,30.6,0,0,1-6.6-.13c-2.11-.22-2.82,2.24-2.16,3.77a27.42,27.42,0,0,1-1.5,23.45c-1.73,3-4.3,5.75-7.45,6.87a13,13,0,0,1-9.44-.28,16.14,16.14,0,0,1-8.56-8.83,2.57,2.57,0,0,0-3.07-1.75,2.52,2.52,0,0,0-1.75,3.08Z" transform="translate(-123.87 -249.52)"/><path class="cls-3" d="M367.6,415.13a29.7,29.7,0,0,0,8.86-8.79,18.85,18.85,0,0,0,1.92-14.19,22.24,22.24,0,0,0-6.62-11.27,18.18,18.18,0,0,0-11-4.58,26.51,26.51,0,0,0-13.55,2.3,2.5,2.5,0,0,0,2.53,4.32,21.29,21.29,0,0,1,9.21-1.71,13.82,13.82,0,0,1,8.44,2.48c5.51,4.06,8.56,12.65,5.41,19-1.69,3.42-4.6,6-7.69,8.13a2.57,2.57,0,0,0-.89,3.42,2.52,2.52,0,0,0,3.42.9Z" transform="translate(-123.87 -249.52)"/><path class="cls-3" d="M334.05,371.34c-2.11,7.59,4.88,16.81,13,13.21,3.62-1.61,6-5.16,7.36-8.78,1.61-4.39,1.47-9.27.75-13.82-1.18-7.46-4.35-16.79-11.4-20.67-6.75-3.72-15.93-1.08-22.06,2.8a32.35,32.35,0,0,0-14.21,20.33c-.69,3.14,4.13,4.48,4.82,1.33,2.48-11.28,12.43-21.22,24.34-21.18a9.83,9.83,0,0,1,7.78,3.74,24.46,24.46,0,0,1,4.34,8.44c2.06,6.4,3.45,14.77-.76,20.64a7.77,7.77,0,0,1-3.19,2.72,3.34,3.34,0,0,1-3-.06,6.62,6.62,0,0,1-3-7.37c.86-3.1-4-4.43-4.82-1.33Z" transform="translate(-123.87 -249.52)"/><path class="cls-3" d="M355.85,394.11c-7.39-.29-13.94,4.07-18.18,9.85a29.4,29.4,0,0,0-4.77,10.68c-.89,3.77-1.26,7.88-3.52,11.14a2.5,2.5,0,0,0,4.32,2.52c2.19-3.16,2.87-7,3.66-10.72a28.85,28.85,0,0,1,3.79-9.89c3.24-5,8.66-8.82,14.7-8.58,3.21.12,3.21-4.88,0-5Z" transform="translate(-123.87 -249.52)"/><path class="cls-3" d="M342.49,405.5l.45-.11c.51-.15-.47,0-.07,0,.15,0,.31,0,.46,0,.61,0-.08,0-.07,0s.85.23.91.24c.4.1-.5-.26,0,0,.17.09.34.17.5.27a4,4,0,0,1,.44.27c.08.05.57.41.23.15s.09.08.16.15a6.14,6.14,0,0,1,.47.42c.26.26.52.53.76.82s.37.46.08.07l.39.54a15.71,15.71,0,0,1,1.19,2.06l.15.33c-.14-.34.09.22.13.33a11.22,11.22,0,0,1,.36,1.12,10.88,10.88,0,0,1,.26,1.13,1.28,1.28,0,0,1,.06.32s-.05-.56,0-.27,0,.42.06.63a9.73,9.73,0,0,1,0,1.08c0,.1,0,.63,0,.19s0,.2-.07.33a5.62,5.62,0,0,1-.15.55c0,.09-.07.18-.09.27-.06.28.23-.44.09-.2s-.17.34-.26.5-.43.61-.16.27-.15.15-.23.23-.56.48-.24.23-.2.12-.31.19-.86.41-.2.14a2.58,2.58,0,0,0-1.75,3.08,2.51,2.51,0,0,0,3.08,1.74,8.1,8.1,0,0,0,4.72-4.65,11,11,0,0,0,.33-6,15.91,15.91,0,0,0-6.55-10.15,7.76,7.76,0,0,0-6.39-1.09,2.55,2.55,0,0,0-1.75,3.08,2.52,2.52,0,0,0,3.08,1.74Z" transform="translate(-123.87 -249.52)"/><path class="cls-3" d="M346.28,435.33a19.07,19.07,0,0,1-4.24,5.05,11.07,11.07,0,0,1-2.63,1.56,19.47,19.47,0,0,0-3.05,1.1c-1.83,1.11-2.66,3.09-3.95,4.69.16-.2-.66.62-.56.56s-.25.12-.12.06a4.69,4.69,0,0,1-1.11.31,11.89,11.89,0,0,1-3.66-.34,2.57,2.57,0,0,0-3.08,1.75,2.52,2.52,0,0,0,1.75,3.07c3.18.6,6.79,1.08,9.5-1.12a11.67,11.67,0,0,0,2.21-2.64,13,13,0,0,1,1.68-2.14c-.29.29.34,0-.13.08l.88-.24a18.94,18.94,0,0,0,2.17-.82,16,16,0,0,0,3.52-2.24,24,24,0,0,0,5.13-6.17c1.7-2.74-2.62-5.25-4.31-2.52Z" transform="translate(-123.87 -249.52)"/><path class="cls-3" d="M336.91,443.55c-5.47,5.9-5.46,16.05.29,21.77,2.28,2.28,5.81-1.26,3.53-3.53-3.75-3.74-3.87-10.83-.29-14.7a2.55,2.55,0,0,0,0-3.54,2.52,2.52,0,0,0-3.53,0Z" transform="translate(-123.87 -249.52)"/><path class="cls-3" d="M307.67,382.19a66.31,66.31,0,0,0,5.92,8.41,31.08,31.08,0,0,0,7.29,7c3,1.83,6.89,2.35,9.85.22a9,9,0,0,0,3.41-8.86,2.52,2.52,0,0,0-3.08-1.75,2.56,2.56,0,0,0-1.74,3.08,3.6,3.6,0,0,1-2.22,3.81c-2.05.66-4.16-1-5.58-2.27A53.12,53.12,0,0,1,312,379.66c-1.64-2.76-6-.25-4.31,2.53Z" transform="translate(-123.87 -249.52)"/><path class="cls-3" d="M307.29,434.89A22.27,22.27,0,0,0,311,446.83a2.5,2.5,0,1,0,4.31-2.52,19.47,19.47,0,0,1-1.32-2.25c-.11-.21-.21-.42-.3-.64l-.15-.33c.14.33.15.36.05.11-.16-.43-.32-.85-.46-1.28a20.26,20.26,0,0,1-.66-2.66,4.58,4.58,0,0,1-.1-.63c0,.71,0-.1,0-.26-.05-.49-.08-1-.09-1.48a2.5,2.5,0,0,0-5,0Z" transform="translate(-123.87 -249.52)"/><path class="cls-3" d="M312.78,494.83c0-.44,0-.88.05-1.31,0-.26,0-.52.07-.78,0-.43,0,0,0-.23a21.31,21.31,0,0,1,.6-2.63,14.74,14.74,0,0,1,2-4.27c.21-.34.44-.67.67-1l.12-.15c.12-.16.25-.31.38-.46a15.25,15.25,0,0,1,1.71-1.7l.28-.22c-.24.18.24-.17.29-.2.3-.21.61-.4.93-.58l.57-.31c.06,0,.6-.27.29-.14s.31-.11.3-.11l.61-.19a2.5,2.5,0,1,0-1.33-4.82c-8,2.38-12.44,11.2-12.52,19.1a2.53,2.53,0,0,0,2.5,2.5,2.56,2.56,0,0,0,2.5-2.5Z" transform="translate(-123.87 -249.52)"/><path class="cls-3" d="M354.83,398.93a8.5,8.5,0,0,0,6.35-1.26,10.45,10.45,0,0,0,2.36-2.09,13,13,0,0,0,2-3.38,2.48,2.48,0,0,0-.25-1.92,2.54,2.54,0,0,0-1.5-1.15,2.47,2.47,0,0,0-1.92.25,2.93,2.93,0,0,0-1.15,1.49l-.09.22.25-.6a9.27,9.27,0,0,1-1.16,2l.39-.5a9,9,0,0,1-1.45,1.45l.5-.39a8,8,0,0,1-1.6.94l.6-.25a7,7,0,0,1-1.63.44l.67-.09a5.57,5.57,0,0,1-1.47,0l.66.09-.19,0a2.75,2.75,0,0,0-1.93.25,2.51,2.51,0,0,0-.9,3.42,2.43,2.43,0,0,0,1.5,1.15Z" transform="translate(-123.87 -249.52)"/><path class="cls-3" d="M364.37,422.65c.26-.35-.16.18-.22.24l-.48.52-.51.48c-.07.06-.63.54-.45.4s-.32.23-.39.28l-.57.38q-.57.36-1.17.69c-1.64.9-3.38,1.58-5.09,2.32-3.73,1.62-7.16,3.73-9.21,7.37a2.5,2.5,0,1,0,4.31,2.52,13.63,13.63,0,0,1,.79-1.24c-.27.37.13-.15.2-.22a7.55,7.55,0,0,1,.54-.59c.32-.32.66-.62,1-.91.14-.11.12-.09-.06.05l.27-.19.56-.38a33.5,33.5,0,0,1,5-2.45c3.81-1.62,7.27-3.39,9.84-6.75a2.52,2.52,0,0,0-.9-3.42,2.56,2.56,0,0,0-3.42.9Z" transform="translate(-123.87 -249.52)"/><path class="cls-3" d="M309.88,368.13c3.22,0,3.23-5,0-5s-3.22,5,0,5Z" transform="translate(-123.87 -249.52)"/><path class="cls-3" d="M309.79,368.48c3.22,0,3.22-5,0-5s-3.22,5,0,5Z" transform="translate(-123.87 -249.52)"/><path class="cls-3" d="M307.29,366.21v.59a1.88,1.88,0,0,0,.22,1,1.83,1.83,0,0,0,.51.8,2.83,2.83,0,0,0,1.77.74l.66-.09a2.5,2.5,0,0,0,1.11-.65l.39-.5a2.43,2.43,0,0,0,.34-1.26v-.59a1.88,1.88,0,0,0-.22-1,2.16,2.16,0,0,0-1.32-1.32,1.86,1.86,0,0,0-1-.22l-.66.09a2.48,2.48,0,0,0-1.11.64l-.39.51a2.53,2.53,0,0,0-.34,1.26Z" transform="translate(-123.87 -249.52)"/><path class="cls-3" d="M309.88,368.36c3.22,0,3.23-5,0-5s-3.22,5,0,5Z" transform="translate(-123.87 -249.52)"/><path class="cls-3" d="M309.88,368c3.22,0,3.23-5,0-5s-3.22,5,0,5Z" transform="translate(-123.87 -249.52)"/><path class="cls-3" d="M309.79,368.13c3.22,0,3.22-5,0-5s-3.22,5,0,5Z" transform="translate(-123.87 -249.52)"/><path class="cls-4" d="M188.57,421.74h18.26" transform="translate(-123.87 -249.52)"/><path class="cls-5" d="M188.57,424.24h18.26c3.21,0,3.22-5,0-5H188.57c-3.22,0-3.22,5,0,5Z" transform="translate(-123.87 -249.52)"/><path class="cls-4" d="M301.38,312.77v18.91" transform="translate(-123.87 -249.52)"/><path class="cls-5" d="M298.88,312.77v18.91c0,3.22,5,3.22,5,0V312.77c0-3.21-5-3.22-5,0Z" transform="translate(-123.87 -249.52)"/><path class="cls-4" d="M411.65,421.74H393.11" transform="translate(-123.87 -249.52)"/><path class="cls-5" d="M411.65,419.24H393.11c-3.21,0-3.22,5,0,5h18.54c3.22,0,3.23-5,0-5Z" transform="translate(-123.87 -249.52)"/><path class="cls-4" d="M395.12,336.8,376.5,352.43" transform="translate(-123.87 -249.52)"/><path class="cls-5" d="M393.35,335l-18.61,15.62a2.52,2.52,0,0,0,0,3.54,2.55,2.55,0,0,0,3.53,0l18.61-15.63a2.5,2.5,0,0,0,0-3.53,2.53,2.53,0,0,0-3.53,0Z" transform="translate(-123.87 -249.52)"/><path class="cls-4" d="M226.79,353,208.24,336.8" transform="translate(-123.87 -249.52)"/><path class="cls-5" d="M228.56,351.25,210,335a2.55,2.55,0,0,0-3.53,0,2.51,2.51,0,0,0,0,3.53L225,354.79a2.56,2.56,0,0,0,3.54,0,2.53,2.53,0,0,0,0-3.54Z" transform="translate(-123.87 -249.52)"/><path class="cls-3" d="M278.55,514.5h45.84c3.21,0,3.22-5,0-5H278.55c-3.21,0-3.22,5,0,5Z" transform="translate(-123.87 -249.52)"/><path class="cls-3" d="M324.09,514.5a4.19,4.19,0,0,1,.5,0l-.66-.09a3.33,3.33,0,0,1,.82.23l-.59-.26a3.16,3.16,0,0,1,.68.41l-.5-.39a3.13,3.13,0,0,1,.54.55l-.39-.51a4,4,0,0,1,.45.77l-.25-.59a4.24,4.24,0,0,1,.3,1.11l-.09-.66a4.5,4.5,0,0,1,0,1.16l.09-.66a4.27,4.27,0,0,1-.27,1l.25-.6a3.45,3.45,0,0,1-.48.83l.39-.51a2.87,2.87,0,0,1-.55.55l.51-.39a3.68,3.68,0,0,1-.64.37l.6-.26a3.08,3.08,0,0,1-.84.23l.67-.09a4.38,4.38,0,0,1-.52,0,2.5,2.5,0,0,0,0,5,6,6,0,0,0,3.85-1.44,5.9,5.9,0,0,0,1.74-2.86,6.62,6.62,0,0,0-1.56-6.33,5.77,5.77,0,0,0-4.05-1.63,2.5,2.5,0,1,0,0,5Z" transform="translate(-123.87 -249.52)"/><path class="cls-3" d="M278.55,521.75h45.84c3.21,0,3.22-5,0-5H278.55c-3.21,0-3.22,5,0,5Z" transform="translate(-123.87 -249.52)"/><path class="cls-3" d="M278.55,509.5a5.75,5.75,0,0,0-5.59,4.27,6.59,6.59,0,0,0,1.5,6.35,5.79,5.79,0,0,0,4.07,1.64,2.5,2.5,0,0,0,0-5,4.38,4.38,0,0,1-.51,0l.66.09a3,3,0,0,1-.83-.23l.59.26a4.09,4.09,0,0,1-.64-.37l.51.39a2.87,2.87,0,0,1-.55-.55l.39.51a3.82,3.82,0,0,1-.48-.83l.25.6a4.25,4.25,0,0,1-.26-1l.08.66a4.5,4.5,0,0,1,0-1.16l-.09.66a4.24,4.24,0,0,1,.3-1.11l-.25.59a4,4,0,0,1,.45-.77l-.39.51a3.13,3.13,0,0,1,.54-.55l-.5.39a3.16,3.16,0,0,1,.68-.41l-.59.26a3.33,3.33,0,0,1,.82-.23l-.66.09a4.19,4.19,0,0,1,.5,0,2.5,2.5,0,0,0,0-5Z" transform="translate(-123.87 -249.52)"/><path class="cls-3" d="M278.72,530.17h45.8c3.21,0,3.22-5,0-5h-45.8c-3.22,0-3.22,5,0,5Z" transform="translate(-123.87 -249.52)"/><path class="cls-3" d="M324.22,530.17a1.37,1.37,0,0,1-1-.43,3.07,3.07,0,0,1,.25.26c-.31-.34-.26-.41-.07,0,.07.14.14.29.22.42.27.46-.16-.53,0,0s.28.84.39,1.27a26.43,26.43,0,0,1,.6,3.07c.06.37-.05-.42,0,0,0,.14,0,.29.05.43s.07.59.1.88c.06.65.11,1.31.16,2a74.16,74.16,0,0,1,.07,8c-.06,1.23-.15,2.46-.29,3.69,0,.28-.06.57-.1.85.07-.58,0,.21-.06.37-.09.56-.2,1.13-.32,1.69s-.24,1-.39,1.46l-.22.63c-.16.49.28-.43,0,.07a2.2,2.2,0,0,0-.28.49c-.06.25.42-.43.08-.11s.56-.33.11-.08c0,0,.71-.2.76-.2-3.2.16-3.22,5.16,0,5,5.11-.27,5.38-8.61,5.65-12.21.41-5.67.41-11.86-1.08-17.39-.61-2.29-1.84-5-4.59-5.1-3.22-.07-3.22,4.93,0,5Z" transform="translate(-123.87 -249.52)"/><path class="cls-3" d="M278.72,559.84h45.8c3.21,0,3.22-5,0-5h-45.8c-3.22,0-3.22,5,0,5Z" transform="translate(-123.87 -249.52)"/><path class="cls-3" d="M278.72,525.17c-5.07.11-5.38,8.63-5.65,12.11-.44,5.68-.46,11.87,1,17.42.62,2.35,1.83,5,4.6,5.17,3.22.16,3.21-4.84,0-5a1.94,1.94,0,0,1,.84.24c-.37-.21,0,0,.17.16a3.19,3.19,0,0,1-.26-.26c.33.32.26.4.07,0a3.55,3.55,0,0,0-.23-.43c.06.08.17.49,0,0s-.28-.85-.39-1.28-.23-.93-.32-1.41c-.05-.25-.09-.51-.14-.76l-.06-.4,0-.29c0,.28-.07-.52-.08-.63l-.09-.88c-.07-.65-.12-1.31-.16-2a71.7,71.7,0,0,1,0-8c.06-1.23.16-2.46.3-3.68,0-.15.13-1,0-.4,0-.27.08-.54.13-.81.09-.57.2-1.13.32-1.69s.24-1,.39-1.45c.07-.2.16-.41.22-.62-.06.19-.22.38,0-.06a2.39,2.39,0,0,0,.28-.49c.07-.25-.42.46-.08.13s-.55.34-.12.09c0,0-.69.25-.39.17s-.75,0-.38,0c3.21-.07,3.23-5.08,0-5Z" transform="translate(-123.87 -249.52)"/><path class="cls-3" d="M275.75,537.89h50.14c3.22,0,3.22-5,0-5H275.75c-3.22,0-3.23,5,0,5Z" transform="translate(-123.87 -249.52)"/><path class="cls-3" d="M276.4,545h50.14c3.22,0,3.22-5,0-5H276.4c-3.22,0-3.23,5,0,5Z" transform="translate(-123.87 -249.52)"/><path class="cls-3" d="M275.75,552.43h50.14c3.22,0,3.22-5,0-5H275.75c-3.22,0-3.23,5,0,5Z" transform="translate(-123.87 -249.52)"/><path class="cls-3" d="M362.47,434.56a35,35,0,1,1-35,35A35,35,0,0,1,362.47,434.56Z" transform="translate(-123.87 -249.52)"/><path class="cls-6" d="M397.43,469.53a35,35,0,1,1-35-35A35,35,0,0,1,397.43,469.53Z" transform="translate(-123.87 -249.52)"/><text class="cls-7" transform="translate(219.83 237.57) scale(1.25 1)">2</text></svg>